# xmcd
#
# Track frame offsets:
#	150
#	16577
#	30895
#	41872
#	57913
#	67811
#	85069
#	101515
#	119555
#	134756
#	150370
#	168557
#	183398
#	196819
#	210457
#	227146
#	243636
#	261999
#	280362
#
# Disc length: 3889 seconds
#
# Revision: 3
# Processed by: cddbd v1.5.2PL0 Copyright (c) Steve Scherf et al.
# Submitted via: EasyCDDAExtractor 11.5.0.1
#
DISCID=040f2f13
DTITLE=Various Artist - NCT 052
DYEAR=2003
DGENRE=Country
TTITLE0=George Strait - Cowboys Like Us
TTITLE1=Sawyer Brown - I'll Be Around
TTITLE2=Dwight Yoakam - The Late Great Golden State
TTITLE3=Jo Dee Messina - I Wish
TTITLE4=Tracy Byrd - Drinkin' Bone
TTITLE5=Lonestar - Walking In Memphis
TTITLE6=Jennifer Hanson - Half A Heart Tattoo
TTITLE7=Mark Wills - And The Crowd Goes Wild
TTITLE8=Dusty Drake - Smaller Pieces
TTITLE9=Hank Williams, Jr. - I'm One Of You
TTITLE10=Jimmy Wayne - I Love You This Much
TTITLE11=Chris Ledoux - Horsepower
TTITLE12=Susan Ashton - She Is
TTITLE13=Randy Travis - Pray For The Fish
TTITLE14=Rebecca Lynn Howard - What A Shame
TTITLE15=Sammy Kershaw - I've Never Been Anywhere
TTITLE16=Ryan Tyler - Run, Run, Run
TTITLE17=Montgomery Gentry - Hell Yeah
TTITLE18=Suzy Bogguss ft. Ray Benson - Cupid Shot Us Both With One Arrow
EXTD=
EXTT0=
EXTT1=
EXTT2=
EXTT3=
EXTT4=
EXTT5=
EXTT6=
EXTT7=
EXTT8=
EXTT9=
EXTT10=
EXTT11=
EXTT12=
EXTT13=
EXTT14=
EXTT15=
EXTT16=
EXTT17=
EXTT18=
PLAYORDER=
